<?xml version="1.0" encoding="utf-8"?>
<!-- Generator: Adobe Illustrator 19.0.0, SVG Export Plug-In . SVG Version: 6.00 Build 0)  -->
<svg version="1.1" id="Layer_1" xmlns="http://www.w3.org/2000/svg" xmlns:xlink="http://www.w3.org/1999/xlink" x="0px" y="0px"
	 viewBox="0 0 445 110" enable-background="new 0 0 445 110" xml:space="preserve">
<path id="XMLID_17_" fill="#1A1A1A" d="M183.3,64.5c0.3,8.7-6.8,17.3-17.9,17.7c-4.1-0.1-6.7-0.1-10-1c-4.8-1.4-6.7,0.5-10,0.5
	c-0.9,0-1.4-0.7-1.4-1.4v-4.1c0-0.5,0-1.9,0.2-2.8c0.4-1.5,1.3-1.5,0.3-6.2c-0.7-3.8,2.8-10.3,3-10.6c0.3-0.4,0.9-0.6,1.9-0.6
	c1.2,0,1.7,1.4,1.9,3l0.1-0.1c0.4-0.2,1,0,1.2,0.5c0.2,0.4,0,1-0.5,1.2l-0.8,0.4c0,0.2,0,0.5,0,0.7h0.1c0.5-0.2,1.1,0,1.3,0.4
	c0.2,0.5,0,1.1-0.4,1.3l-0.9,0.4c0.1,0.3,0.1,0.5,0.2,0.8l0.3-0.1c0.4-0.2,1,0,1.2,0.5c0.2,0.4,0,1-0.5,1.2l-0.5,0.2
	c0.1,0.3,0.2,0.6,0.3,0.8h0.1c0.4-0.2,1,0,1.2,0.5c0.1,0.4,0,1-0.5,1.2c1.7,2.9,4.4,5.6,8,5.2c6.1-0.6,6.3-5.7,6.1-8.6
	c-0.2-2.5-2.3-8.1-8.5-8.9c-6.3-0.8-12-4.4-12.2-13c-0.2-9.8,6.9-16.9,16.3-15.6c6.8,0.8,10.1,6.7,12.4,6.2l-0.1-0.1
	c-0.4-0.5-0.4-1.1,0.1-1.4c0.5-0.4,1.1-0.4,1.4,0.1l0.1,0.2c0.1-0.2,0.2-0.4,0.4-0.6l-0.4-0.4c-0.3-0.4-0.3-1,0.1-1.3
	c0.4-0.3,1-0.3,1.3,0.1l0.1,0.1c0.1-0.3,0.3-0.5,0.4-0.8L178,29c-0.3-0.5-0.2-1,0.2-1.3c0.5-0.3,1-0.1,1.3,0.2
	c0.1-0.3,0.3-0.4,0.4-0.7l-0.4-0.5c-0.3-0.4-0.3-1,0.1-1.3c0.4-0.3,1-0.3,1.3,0.1l0.1,0.1c0.9-0.8,1.9-1.4,3.1-1
	c0.8,0.3,1.5,0.9,1.6,1.3c0,0.3-0.6,7.2-2.9,9.7c-2.9,3.3-2.1,3.6-2.5,5c-0.2,0.8-1.5,3.8-1.7,4.2c-0.1,0.1-0.2,0.2-0.3,0.3
	c-0.5,0.5-1.1,0.3-1.7,0.2c-0.4,0-3.7-1.1-3.7-1.1s-0.1,0.1-1-0.8c-2.1-6.2-11.2-6.3-12.2-1.4c-0.9,4.5,2.6,7.7,8.6,8.2
	C175.3,50.7,182.8,56.2,183.3,64.5z"/>
<path id="XMLID_25_" fill="#1A1A1A" d="M251.6,79.1c0.1,1-1.9,2.8-3.3,2.8c-0.4,0-1.5,0.7-1.6,1c-0.8,1.5-3.3,3.4-6.4,3.4
	c-3,0-5.3-1.8-6.3-3.2c-0.1-0.1-0.1-0.3-0.2-0.4c-0.1-0.2-1.2-0.8-1.8-0.8c-7.5,0-17.2-0.1-24.6-0.1c-0.6,0-1.8,1-2,1.3
	c-1,1.4-3.3,3.2-6.3,3.2s-5.3-1.6-6.3-3.2c-0.2-0.4-1.5-1.4-1.9-1.4h-2c-3-0.1-4.1-0.5-3.8-4.3c0.4-3.5,0.1-9.4,8.8-9.4
	c6.8,0,9.7-6.7,13.9-7.3c0.4-0.9,2.1-4.3-1.3-5.4c-1.6,0-3.3,0.9-4.8,1.1c-2,0.3-8.2,4.9-8.8,2c-0.9-4.8-5-9.3-2.3-11.1
	c1.9-1.3,4-0.3,6-0.4c1.2-0.7,1.4-1.6,0.9-2.9c-1.8-2.5-6.5-1.3-8.6-3.6c-1.6-1.5-1.4-4.5,0.1-6.1c1.4-1.6,4-2.2,6.2-1.9
	c1.6,0.2,3.5,0.7,4.3-0.7c1.7-2.7-4-5.1-2.9-8c0.6-1.8,3.1-1.4,5-0.8c1.8,0.6,4.4,0.5,4.6-1.4c0.1-0.9-0.6-1.7-0.4-2.6
	c0.3-1.4,2.2-1.4,3.6-0.6c1.4,0.8,2,2,3.4,2.6c1.6,0.5,2.8,0,4.5-0.2c1.8-0.3,3.4,0.1,3.9,1.6c0.3,1.1-0.1,1.9-0.7,3
	c-0.5,1.1-1.1,2-1,3c0.2,1,1.3,2,2.2,1.4c0.9-0.6,0.6-1.8,1.1-2.6c0.6-1.4,2.6-1.5,3.8-0.8c0.9,0.9,1.6,2.3,1.5,3.9
	c0.1,0.8,0,1.9,0.6,2.4c0.5,0.5,1.4,0.6,2,1.1c0.7,1.1,0,2.3-0.7,3.4c2-0.5,4.3,1,4.9,3.1c0.6,2.1-1.2,4.4-3.4,4.7
	c-0.3,1.1,1.8,1,2.8,1.8c0.5,0.5,0.2,1.7-0.5,2.3c-0.6,0.4-1.6,0.5-2.5,1c-1.3,0.7-2.1,2-3.5,2.4c-2.9,0.9-2.4-1-4.6-1.7
	c-2.2-0.5-2.6,2.9-4.3,2c-0.5-0.4-1-0.2-1.6,0h0.3c-3.2,2.3-0.5,5.9,0.1,7c0.3,0.8,2.2,1.8,3.3,1.7c0.9,0,1.8,0.1,3,0.2
	c6.3,0.7,7.8,9,21.5,9.4C250,71.2,251.5,75.9,251.6,79.1z"/>
<path id="XMLID_27_" fill="#1A1A1A" d="M280.5,30.4c0,2.5-3.6,2.6-4.5,4.7c-0.9,2.2-2.6,10.5-1.1,36.8c0,6.1,4.5,5.2,4.5,7.6
	c0,1-0.8,1.7-1.7,1.7h-16.1c-1,0-1.7-0.8-1.7-1.7c0-2.2,4.8-1.1,4.8-7.6c-0.5-9.3-5.1-17.6-11.3-20.6c-0.7-0.3-1.8-0.4-1.8-0.4h-2.2
	v5.4c0,0.6-0.4,1-1,1h-1.5v6.4c0,0.6-0.4,1-1,1h-3.4c-0.6,0-1-0.4-1-1v-6.4H240c-0.6,0-1-0.4-1-1c0,0,0.2-8.4-0.5-18
	c-1.1-5.3-4.4-5.5-4.4-7.7c0-1.3,1.3-1.8,2.4-1.8h13.9c0.9,0,1.8,0.7,1.8,1.8c0,2.4-2.6,3.5-2.6,7.8v0.7c1.9,3.6,6.9,7.1,10.4,9.5
	c2.3,1.5,5.3,0.1,5.5-2.6c0.2-2.1,0.3-4.8,0.1-7.8c-0.5-3-1.1-4.2-3-5.2c-1-0.6-3-1.1-3-2.6s0.7-1.7,1.7-1.7h17.5
	C279.7,28.7,280.5,29.4,280.5,30.4z"/>
<path id="XMLID_11_" fill="#1A1A1A" d="M141,30.9c0,2.5-4.1,2.4-5.1,4.7c-0.9,2.4-2.5,9.5-1,35.9c0.1,2,0.8,4.3,2.1,5.4
	c1.3,1.1,2.9,1,2.9,2.7c0,0.9-0.7,1.7-1.7,1.7h-16.1c-0.9,0-1.7-0.7-1.7-1.7c0-1.2,1.9-2.2,3.3-3.6c1.1-1.1,1.7-3.6,1.7-5.1
	c0-3.3-1.6-7.1-3.6-10.1c-3.2-4.7-6.7-3.7-7.1-1.2c0.1,8.2-1.4,17.9-7.7,22.7c-1.1,0.8-1.5,1.2-2.3,1.2c-0.9,0-1.4-0.3-1.9-0.8
	c-0.3-0.2-1.5,0.5-2.2,0c-1.3-0.9-1.7-2-2.6-3.3c-3-4.6-4.7-12.7-4.4-19.9c0.2-5.1,2.2-10.1,4.2-13.9c0.8-1.6,2.3-4.4,2.4-6.1
	c0-0.2,2-5.5-3.7-9.4c-0.8-0.5-2.1-2.2-0.9-3.2c2.6-2.1,6.5,3.7,9.1,3.7c0,0,8.6-5.2,9.9-3.2c0.8,1.1-0.3,2.4-1.1,2.8
	c-6.9,3.8-4.8,8.4-4.5,9.2c1.6,4.9,5.7,8.6,9.8,11.6c1,0.8,5.6,3.2,6.5-1.4c1-4.6,0.5-10.9,0.5-10.9c-0.4-2.4-0.8-4.2-2.7-5.2
	c-1-0.6-3-1.1-3-2.6s0.7-1.7,1.7-1.7h17.5C140.2,29.2,141,29.9,141,30.9z"/>
<path id="XMLID_7_" fill="#1A1A1A" d="M92.8,78.2c0,1.8-1.5,3.3-3.4,3.3H61.2c-1,0-1.8-0.8-1.8-1.8c0-2.2,1.3-1.6,1.9-8.2
	c2.8-32.8-7.9-34.6-8.2-38.1c-0.1-1,0.6-1.9,1.6-2l26.2-3c1-0.1,1.8,0.6,1.8,1.5c2.4,7-17.8-2.6-13.6,18c1.3,2.6,4.1,3.7,6.2,3.1
	c2.1-0.5,6.3-1.3,7.3-1.4c1-0.2,2.5,0,2.9,1.5c0.8,1.9-1,3.3-1,3.3s-6.9,3.4-8.2,4c-3.4,1.6-6.6,3.4-6.5,5.2c0.1,3,3.4,8.9,7.5,11.6
	c5.9,4,7-1.3,11.2-1.3C91.5,73.9,92.8,76.4,92.8,78.2z"/>
<path id="XMLID_31_" fill="#1A1A1A" d="M397,51.6c-1.4,10.2-6.2,20.5-13.4,27.5c-5.6,5.6-6.3,1.1-10.9,1.1c-4.8,0-5.4,3.6-11.3-0.6
	c-8.8-6.2-13.6-22-13.4-29.5c0-8.9,6.2-15.9,15.1-15.6c2.7,0.1,5.7,1.6,6.5,0c1.1-1.7-4.1-4.3-4.9-5.4c-0.8-1.1-0.1-3,2.4-0.7
	c4.2,3.5,8.5,5.7,7.9,2.6c-2.3-9.9,23.2-13.6,4.8,1.4c-0.8,0.7-0.4,2,0.7,2c2.6,0,5.4,0.1,7.3,0.6C393.6,37,398.1,44,397,51.6z"/>
<path id="XMLID_32_" fill="#1A1A1A" d="M443.3,80c-0.3,0.6-1,1.1-1.7,1.1H425c-0.9,0-1.7-0.2-1.7-1.7s2.3-1.9,3.6-2.5
	c1.2-0.6,1.4-2.4,1.4-3.4c0-3.4-0.7-6.3-1.9-8.8c-0.7-1.5-1.6-2.8-2.6-4c-2.3-2.8-5.3-4.9-8.4-6.4c-1.8-0.9-2.6,1-3,4.1
	c-0.6,6-0.6,12-0.5,13.5c0.1,2.1,1,4,2.9,5c1,0.6,3,1.1,3,2.6s-0.7,1.7-1.7,1.7h-17.2c-0.9,0-1.7-0.7-1.7-1.7c0-1.8,3.2-2.7,3.2-2.7
	c2.1-1.2,2-2.5,2-5l-0.1-34.3c0-1.5-0.7-2.9-1.9-3.8l-2.2-1.7c-1-0.8-0.8-2.5,0.5-2.8c0.1,0,0.2,0,0.3,0h17.1c0.9,0,1.7,0.8,1.7,1.7
	c0,0.6-0.4,1.2-0.9,1.5c-0.8,0.4-1.6,0.8-2.3,1.3l-0.3,0.2c-0.9,0.7-1.5,1.8-1.5,3c0,2.2,0.9,4,2.3,5.8h0l3.7,3.7l0,0
	c1.4,1.3,3,2.5,4.4,3.8c2,1.7,5.1,0.3,5.1-2.3c0-0.1,0-0.1,0-0.1V36.5c0-2.6-3.3-2.8-4.3-3.6c-1-0.8-0.9-1.5-0.9-1.9
	c0-0.9,0.8-1.7,1.7-1.7h17.1c0.9,0,1.7,0.6,1.7,1.7s-0.4,1.4-0.9,1.7c-0.7,0.4-2.2,0.5-3.2,1.5c-0.6,0.6-1,1.5-1,2.4v37
	c0,1.5,0.9,2.9,2.3,3.4C442.3,77.5,443.9,78.5,443.3,80z"/>
<path id="XMLID_46_" fill="#1A1A1A" d="M323.1,46.8c-0.1-0.2-0.1-0.4-0.2-0.6c-0.1-0.7-0.2-1.3-0.4-2c-1.4-5.8,12.2-7.7,7-13
	c-1.1-1.1-2.7-1.5-4.9-1.5c-2.5,0-4.7,0.9-6.7,2.6c-0.2,0.1-0.4,0.2-0.5,0.3c-0.3,0.1-0.5,0.1-0.8,0.2c-0.4-0.1-0.8-0.2-1.2-0.2
	c-0.2-0.1-0.5-0.2-0.8-0.3c-1-1.1-2.4-1.7-3.7-2.2c-2.7-1.1-5.9-2.2-8.8-2.5c-0.9-0.1-1.8-0.1-2.7,0c-3.2-0.3-4.3-0.5-7.1,0.5
	c-2.3,0.8-5.3,2.8-6.3,4.9c-0.7,1.4-2,3-2,4.5c-0.8,2-1,4.1-1.8,6.1c-1.1,2.4-1.7,4.8-1.4,7.5c0.2,1.2,0.6,2.3,1.2,3.1
	c0.1,0.3,0.2,0.7,0.3,1c0.1,0.6,0.2,1.2,0.4,1.7c1.1,3.4,3.2,3.8,5.9,5.4c0.5,0.4,1,0.9,1.5,1.3c-5.5,2.1-7.1,7.2-7.1,10.5
	c0,12,29.5,2.3,29.5,11.1c-0.3,8.9-14,8-18.5,1c-4.4-6.5-12.3-1.6-12.8,2.9c-0.5,4.2,2.2,6.9,6.8,8c4.4,1,8.7,2,13.2,2
	c5.8,0,10.3-0.9,13.7-2.6c3.3-1.3,5.8-3.3,7.1-5.3c1.5-2.3,1.9-4.5,1.9-6.8c0-7.9-6.9-17.6-26.1-12.8c-3.1,0.6-3.1-3.9,5-4
	c1.6,0,3.2-0.2,4.8-0.6c1.2,0.1,2.4,0.1,3.6-0.2c2.9-0.8,5.5-2.6,7.5-4.8c1.4-1.5,3-3.2,3.9-5.2c0.1-0.1,0.1-0.2,0.2-0.3
	c0.8-0.7,1.3-1.6,1.5-2.7c0.3-0.7,0.5-1.4,0.5-2.2c0-1.4-0.4-2.8-1.2-3.9C323.5,47.4,323.3,47.1,323.1,46.8z M302.8,55.1
	c-3.6,0-6.6-2.9-6.6-6.2c0-3.5,3-6.2,6.6-6.2s6.6,2.8,6.6,6.2C309.4,52.3,306.4,55.1,302.8,55.1z"/>
<path id="XMLID_28_" fill="#1A1A1A" d="M350,77.3c0.8,1.7,0.1,3.9-1.4,3.9h-21.4c-0.9,0-1.7-0.7-1.7-1.7c0-0.3,0-0.6,0.1-0.9
	c0.2-1,0.8-2,1.6-2.7c1.3-1.1,3.2-0.2,4.5-5.7c1.3-5.5,0.7-16.2,1.1-44.7c0-1.5-1.1-2.7-2.7-2.7h-11.2c-1.6,0-2.9-0.8-3.6-2.2
	c0,0,0,0,0-0.1c-0.7-1.2,0-2.2,1.4-2.2h16.2v-1.5c-0.2-1.4-1.4-2.4-2.7-2.4h-16.4c-1.8,0-3.3-1.5-3.3-3.3V11c0-0.8,0.6-2.2,1.4-2.3
	c0.9-0.1,1.8,0.6,1.8,1.5l0.3,0.3h14.5h1.4c1.4,0,2.5-1,2.7-2.4v-2c0-1.6,10.9-1.2,10.9,0v1.6c0,1.6,1.2,2.8,2.8,2.8h1h14l0.2-0.3
	c0-0.9,0.8-1.6,1.8-1.4c0.7,0.2,1.1,0.8,1.1,1.6c0,1.9-1.5,3.9-3.3,3.9h-14.9c-1.6,0-2.8,1.2-2.8,2.8v1.1l0.2-0.1h16.2
	c1.4,0,2,1,1.4,2.2c0,0,0,0,0,0.1c-0.7,1.4-2,2.2-3.6,2.2h-11.2c-1.4,0-2.5,1.1-2.7,2.5c-0.4,22.9-1.1,33.3,0.3,41.4
	C345.3,74.3,349.2,75.6,350,77.3z"/>
<path id="XMLID_60_" fill="#1A1A1A" d="M37.1,47.2c-4.1,0.5-7.8,2.5-10.6,5.3L26,52.2c-0.8-0.7-0.8-1.9-0.1-2.7L35,38.3
	c2.9-3.2,6.1-3.9,7.6-4.9c0.3-0.2,0.5-0.5,0.7-0.9c0.2-0.3,0.3-0.7,0.3-1.1c0-0.7-0.2-1.2-0.6-1.7S42,29,41.2,29H30.6
	c-0.7,0-1.3,0.2-1.7,0.6c-0.4,0.4-0.6,0.9-0.6,1.5c0,0.8,0.3,1.5,1,1.9c0.4,0.2,0.6,0.6,0.6,1.1c0,0.7-0.3,1.4-0.9,2.1
	c-2,2.3-7.5,6.9-9.5,8.8c-1,1.1-2.9,0.4-2.9-1.1v-7.1c0-3.4,3.6-3.1,3.6-5.9c0-0.9-0.7-1.7-1.8-1.7H3.5c-0.9,0-1.8,0.7-1.8,1.8
	c0,3.5,5.1-0.9,5.6,7.7C7.8,47.3,8,66.6,6.9,71.9c-1.1,5.3-4.4,5.5-4.4,7.8c0,1.3,1.3,1.8,2.4,1.8H18c0.9,0,1.8-0.7,1.8-1.8
	c0-2.4-2.6-3.5-2.6-7.8c0,0-1.9-11.7,3.6-10.2l0.8,0.2c-0.1,0.7-0.2,1.4-0.3,2.1c-0.6,11.2,9.1,20.3,20.2,18.8
	C50,81.7,56.8,74.6,57.3,66C58,54.9,48.3,45.8,37.1,47.2z M33.2,52.5l4.5,9.2L36.9,62l-7.6-7.5L33.2,52.5z M24.4,62.3l9.4,1.8
	L33.7,65l-9.2,0.8V62.3z M24.8,66.8l9.9-1.3l0.2,0.7l-8.6,5.3L24.8,66.8z M27.6,73.1l7.8-5.5l0.7,0.5L30.9,77L27.6,73.1z M38.4,79.8
	L32,78.5l5.1-9.5l1.3,0.6L38.4,79.8z M38.7,61.5L34.8,52l3.3-1.1l1.3,10.6H38.7z M53.7,61.9v1.3L43.7,64l-0.3-0.7l8.8-5.2L53.7,61.9
	z M51,56.6l-8.5,5.7L42.1,62l5.9-8.8L51,56.6z M41.7,51.1L46,53l-5,8.5h-0.6L41.7,51.1z M40.3,79.5L40,69.4l1.3-0.6l5.7,9.1
	L40.3,79.5z M48.5,77l-6.3-8.8l0.7-0.8l9.4,3.8L48.5,77z M53.1,69.7l-9.3-3.3v-0.9L54.2,65L53.1,69.7z"/>
<rect fill="none" width="445" height="110"/>
<path id="XMLID_3_" fill="#FDC860" d="M426.4,64.7c-0.7-1.5-1.6-2.8-2.6-4c0.4-1.1,1.5-1.9,2.8-1.9c1.7,0,3,1.3,3,3s-1.3,3-3,3
	C426.5,64.7,426.5,64.7,426.4,64.7z M402.3,54.6c2.2,0,4.2-2,4.2-4.2c0-2.2-2-3.8-4.2-3.8v7.8 M404.1,33.7c0,1.1,0.9,2,2,2
	s2-0.9,2-2c0-1.1-0.9-2-2-2S404.1,32.6,404.1,33.7z M404,77.3c0,1,0.9,1.9,1.9,1.9s1.9-0.9,1.9-1.9c0-1-0.9-1.9-1.9-1.9
	S404,76.3,404,77.3z M406.1,66.5c0,1.3,1.1,2.4,2.4,2.4s2.4-1.1,2.4-2.4s-1.1-2.4-2.4-2.4S406.1,65.2,406.1,66.5z M438.5,55.2
	c-0.3-0.1-0.6-0.2-0.9-0.2c-1.3,0-2.4,1.1-2.4,2.4s1.1,2.4,2.4,2.4c0.3,0,0.6-0.1,0.9-0.2V55.2z M415.1,42.7c-0.9,0.7-1.6,2-0.8,3.4
	c0.5,0.9,1.3,1.4,2.3,1.4c0.9,0,1.7-0.4,2.2-1.1L415.1,42.7z M438.5,39.5c-1.9,0.6-3.3,2.4-3.3,4.5s1.4,3.9,3.3,4.5V39.5z
	 M431.8,70.9c0,1.2,0.9,2.1,2.1,2.1s2.1-0.9,2.1-2.1s-0.9-2.1-2.1-2.1S431.8,69.7,431.8,70.9z"/>
<path id="XMLID_49_" fill="#E88E46" d="M306,34.1c-0.2,0.4-0.6,0.9-0.8,1.3c-0.3,0.6-0.1,1.7,0.5,2c0.7,0.3,1.6,0.1,2-0.4
	c0.2-0.4,0.6-0.9,0.8-1.3c0.3-0.6,0.1-1.7-0.5-2C307.3,33.2,306.5,33.4,306,34.1L306,34.1z"/>
<path id="XMLID_14_" fill="#E64237" d="M315.1,43.9c0.1,0.2,0.2,0.3,0.3,0.6c0,0.1,0.1,0.2,0.1,0.3c0,0,0.1,0.3,0.1,0.1
	c0.1,0.2,0.1,0.4,0.2,0.7c0,0.1,0,0.2,0.1,0.3c0-0.2,0,0.1,0,0.1c0.1,0.7,0.6,1.6,1.5,1.3c0.7,0,1.6-0.6,1.5-1.3
	c-0.1-1.2-0.6-2.6-1.3-3.7c-0.5-0.6-1.3-0.9-2-0.4C315,42.4,314.6,43.2,315.1,43.9L315.1,43.9z"/>
<path id="XMLID_55_" fill="#FEE000" d="M293.6,52.7c-0.1-0.2-0.1-0.4-0.2-0.7c0-0.1,0-0.2-0.1-0.3v-0.1c0,0.2,0,0.2,0,0
	c-0.1-0.7-0.6-1.6-1.5-1.3c-0.7,0-1.6,0.6-1.5,1.3c0.1,0.7,0.2,1.2,0.5,2c0.2,0.7,0.9,1.2,1.8,1C293.4,54.2,294,53.5,293.6,52.7
	L293.6,52.7z"/>
<path id="XMLID_52_" fill="#F36F5D" d="M293.7,39c-0.3-0.8-0.8-1.6-1.1-2.3s-1.3-0.9-2-0.4c-0.6,0.5-0.8,1.2-0.5,2s0.8,1.6,1.1,2.3
	c0.3,0.7,1.3,0.9,2,0.4C293.8,40.4,294.1,39.8,293.7,39L293.7,39z"/>
<path id="XMLID_51_" fill="#03789B" d="M297.8,34.7c0.9-0.1,1.9-0.2,2.8-0.3c0.6-0.1,1.1-0.4,1.1-1.1c0-0.6-0.6-1.2-1.1-1.1
	c-0.9,0.1-1.9,0.2-2.8,0.3c-0.6,0.1-1.1,0.4-1.1,1.1C296.6,34.1,297,34.7,297.8,34.7L297.8,34.7z"/>
<path id="XMLID_54_" fill="#72A06F" d="M286.9,47.1c-0.3,0.4-0.7,0.9-1,1.3c-0.3,0.4-0.1,1.3,0.5,1.7c0.6,0.3,1.1,0.1,1.7-0.4
	c0.3-0.4,0.7-0.9,1-1.3c0.3-0.4,0.1-1.3-0.5-1.7C287.9,46.3,287.4,46.6,286.9,47.1L286.9,47.1z"/>
<path id="XMLID_56_" fill="#F1602F" d="M303,60.6c-0.3,0-0.8,0-1.1,0c-0.1,0-0.2,0-0.2,0s-0.3,0-0.1,0c0.1,0-0.1,0-0.1,0
	c-0.1,0-0.2,0-0.3-0.1c-0.3-0.1-0.7-0.2-1-0.3c-0.1,0-0.1-0.1,0,0c-0.1,0-0.2-0.1-0.3-0.1c-0.2-0.1-0.3-0.2-0.6-0.2
	c-0.6-0.3-1.7-0.1-2,0.4c-0.3,0.7-0.1,1.6,0.5,2c1.7,0.9,3.5,1.3,5.5,1.1c0.7-0.1,1.6-0.6,1.5-1.3C304.5,61.4,303.9,60.5,303,60.6
	L303,60.6z"/>
<path id="XMLID_48_" fill="#72A06F" d="M310.8,43.9c0.7,0,1.6-0.7,1.5-1.3c0-0.8-0.6-1.3-1.5-1.3c-0.7,0-1.6,0.7-1.5,1.3
	C309.4,43.1,310,43.9,310.8,43.9L310.8,43.9z"/>
<path id="XMLID_43_" fill="#029F57" d="M312.8,57.5c0.7,0,1.6-0.7,1.5-1.3c0-0.8-1.6-1.3-2.5-1.3c-0.7,0-0.6,0.7-0.5,1.3
	S312,57.5,312.8,57.5L312.8,57.5z"/>
<path id="XMLID_15_" fill="#72A06F" d="M313.2,52.5c0.7,0,1.6-0.7,1.5-1.3c0-0.8-0.6-1.3-1.5-1.3c-0.7,0-1.5,0.7-1.5,1.3
	C312,51.8,312.5,52.5,313.2,52.5L313.2,52.5z"/>
<path id="XMLID_5_" fill="#CE4F49" d="M385,45.8c-2.5-2-7.3-2.7-4.8-5.2c2.2-2,14.7,1.9,8.6,10.5C386.4,52.5,388.1,48.3,385,45.8z"
	/>
<path id="XMLID_2_" fill="#3B7E3C" d="M208.8,47.5c0.3,0,0.5-0.1,0.9,0c0.7,0.1,1.5,0.3,1.9,0.6c1.4,0.7,1.6,2,1.5,2.2
	s-0.5,0.8-0.9,0.7c-0.7-0.1-1.4-0.6-2.2-2c-0.3-0.3-0.7-0.5-1.3-0.6C208.5,48.3,208.3,47.5,208.8,47.5z M216.5,37.1
	c0.1,0.1,0,0.3,0.2,0.3c0.2,0.3,1.5,0.7,1.6,0.5c0.5-0.7,0.6-1.3,0.8-1.8c0.1-0.7-0.1-1.4,0.1-2c0-0.1-0.2-0.3-0.1-0.4
	c-0.2-0.3-0.2-0.8-0.5-1.1c-0.3-0.3-0.9,0-0.9,0.6c-0.1,0.7-0.4,1.3-0.8,2C216.5,35.7,216.4,36.4,216.5,37.1
	C216.5,36.9,216.5,36.9,216.5,37.1z M211.7,43c0.1-0.3,0-0.5,0.2-0.9c0.1-0.4,0.3-0.6,0.5-1.1l0.1-0.4c-0.4-0.4-1.1-0.5-1.5-0.6
	c-0.9-0.4-1.9-1.4-2.6-2.4c-0.1-0.1-0.2-0.2-0.2-0.2l0,0c-0.1,0-0.3,0-0.3,0.3c-0.1,0.2-0.1,0.4-0.2,0.8s0.8,1.7,0.8,2
	c0,0.1,0,0.4,0.1,0.5c0.5,0.9,0.9,1.8,1.7,2c0.3,0.1,0.8,0.2,1.2,0.4C211.4,43.5,211.6,43.5,211.7,43C211.5,43.6,211.7,43,211.7,43z
	 M226.2,36c0,0.3,0.1,0.8,0.1,1c0,0.9-0.2,2-0.4,2.6c-0.6,1.9-1.9,2.6-2.1,2.5c-0.2-0.1-0.8-0.5-0.8-1c0-0.9,0.5-1.9,1.9-3.4
	c0.2-0.4,0.4-1,0.6-1.8C225.3,35.8,226.2,35.7,226.2,36z M201,39.4c-0.3-0.6-0.7-1.1-1.2-1.2c-0.6-0.3-1.2-0.6-1.4-0.9
	c-0.2-0.3-0.9-0.4-0.8-0.1c0,0.3,0.2,0.6,0.1,0.9c0.1,0,0,0.3,0.2,0.3c0.4,0.4,0.7,0.9,1,1.4c0.4,0.4,0.8,0.6,1.3,0.9
	c0.2,0.1,0.9-0.7,0.8-1C201.2,39.6,201,39.5,201,39.4C200.8,39.2,200.8,39.2,201,39.4z M206.4,50c-0.7-0.5-1.4-0.8-2.2-0.8
	c-0.8-0.1-1.6-0.3-2.3-0.6c-0.4-0.2-1.2-0.1-0.9,0.1c0.2,0.2,0.6,0.5,0.8,0.7c0.1,0,0.2,0.2,0.3,0.2c0.8,0.2,1.4,0.7,2,1
	c0.7,0.2,1.3,0.4,2.2,0.5C206.6,51.1,206.4,50,206.4,50L206.4,50z M208.1,26.9c0.2,0.1,0.6,0.1,0.8,0.2c0.6,0.3,1.4,0.8,1.6,1.1
	c1.1,1.1,1,2.4,0.8,2.6s-0.7,0.6-1.1,0.4c-0.6-0.3-1.2-1-1.5-2.6c-0.2-0.4-0.5-0.7-1-1.1C207.5,27.7,207.7,26.9,208.1,26.9z
	 M220.1,46.7c0.1-0.3,0.2-0.8,0.4-1.3c0.1-0.3,0.2-0.8,0.4-1.3l0,0c0.1-0.2-0.1-0.4-0.3-0.3c-0.4,0-0.8,0.1-1.3,0.1
	c-0.3,0-0.7-0.1-1-0.1c-1,0.1-1.8,1.2-2.3,2c0,0.1-0.1,0.3-0.1,0.4c0,0.1-0.1,0.2-0.1,0.3c-0.1,0.2,0.1,1.4,0.8,0.7
	c0.2-0.2,0.4-0.2,0.8-0.2c0.3,0,0.7,0.1,1,0.1C218.8,47.2,220,47.2,220.1,46.7L220.1,46.7z M225.8,70.5l-4.8-0.3
	c0,0-1.3-0.3-1.4-1.8c-0.1-1.4-1.9-3.9,0.1-3.8c0,0,4-0.2,4.8,0c0.8,0.2,1.6,1,3.7,2.9C229.4,68.8,230.9,70.4,225.8,70.5z M199,84
	c-1.2,0-2.3-1-2.3-2.1c0-1.3,1.1-2.1,2.3-2.1s2.3,1,2.3,2.1C201.3,83.2,200.3,84,199,84z M240.5,83.9c-1.1,0-2-1-2-2s1-2,2-2
	c1.1,0,2,1,2,2S241.7,83.9,240.5,83.9z"/>
<path id="XMLID_1_" fill="#3CB2B2" d="M103.5,76.1c-0.1,0.7-0.6,1.3-1.4,1.4c-1,0.1-1.7-0.6-1.6-1.6c0.1-0.7,0.6-1.3,1.4-1.4
	C102.9,74.4,103.6,75.3,103.5,76.1z M100.8,68.9l-3.4-3.5l1.1-1l2.4,2.5l3.1-2.6l2.5,2.4l3-2.4l0.9,1.2l-4,3.1l-2.5-2.3L100.8,68.9z
	 M107.1,53.4l-3-3l-1.9,2.8l-3.4-2.3l0.9-1.3l2.1,1.5l2-3.1l3.3,3.3l2.4-2.1l1,1.1L107.1,53.4z M106.8,56.4l2.1,2.5l2-1.6l0.9,1.1
	l-3.1,2.6l-2.1-2.5l-2.4,2.1l-2.8-2.3l-2,2.8l-2.9-2.9l1-1.1l1.7,1.7l1.9-2.7l3.1,2.5L106.8,56.4z"/>
<path id="XMLID_6_" fill="#ED745D" d="M152.3,69.1c-0.3,0-0.7-0.2-0.8-0.5c-0.2-0.4,0-1,0.5-1.2l0.5-0.2c0.4-0.2,1,0,1.2,0.5
	c0.2,0.4,0,1-0.5,1.2l-0.5,0.2C152.5,69.1,152.4,69.1,152.3,69.1z M150.7,66.8c-0.3,0-0.7-0.2-0.8-0.5c-0.2-0.4,0-1,0.5-1.2l1.4-0.6
	c0.4-0.2,1,0,1.2,0.5c0.2,0.4,0,1-0.5,1.2l-1.4,0.6C150.9,66.7,150.8,66.8,150.7,66.8z M149.7,64.4c-0.3,0-0.7-0.2-0.8-0.5
	c-0.2-0.4,0-1,0.4-1.3l2-0.8c0.4-0.2,1,0,1.3,0.4s0,1-0.4,1.3l-2,0.8C150,64.3,149.9,64.4,149.7,64.4z M150.7,61.2
	c-0.3,0-0.7-0.2-0.8-0.5c-0.2-0.4,0-1,0.5-1.2l0.9-0.4c0.4-0.2,1,0,1.2,0.5c0.2,0.4,0,1-0.5,1.2l-0.9,0.4
	C150.9,61.1,150.8,61.2,150.7,61.2z M176.3,34.8c-0.3,0-0.6-0.1-0.8-0.3l-0.3-0.5c-0.3-0.5-0.3-1,0.1-1.4c0.5-0.3,1-0.3,1.4,0.1
	l0.3,0.5c0.3,0.5,0.3,1-0.1,1.4C176.8,34.7,176.6,34.8,176.3,34.8z M178.6,33.4c-0.3,0-0.6-0.1-0.8-0.3l-1-1.1
	c-0.3-0.4-0.3-1,0.1-1.3c0.4-0.3,1-0.3,1.3,0.1l1,1.1c0.3,0.4,0.3,1-0.1,1.3C179.1,33.4,178.9,33.4,178.6,33.4z M179.9,31.1
	c-0.3,0-0.5-0.2-0.7-0.4l-1.1-1.6c-0.3-0.5-0.1-1,0.2-1.3c0.5-0.3,1-0.1,1.3,0.2l1.1,1.6c0.3,0.5,0.1,1-0.2,1.3
	C180.3,31,180.1,31.1,179.9,31.1z M180.9,27.8c-0.3,0-0.5-0.1-0.8-0.3l-0.6-0.8c-0.3-0.4-0.3-1,0.1-1.3s1-0.3,1.3,0.1l0.6,0.8
	c0.3,0.4,0.3,1-0.1,1.3C181.3,27.7,181.1,27.8,180.9,27.8z"/>
<path id="XMLID_13_" fill="#DF4F38" d="M73.8,61.6l-2.9,2.1l4.9,8.4l4.9,3.2h2l0.9,2.1l-3.3,0.7l-7.1-3.8L67.9,65l-0.4-3.9l3.9-2.5
	L73.8,61.6z"/>
</svg>
