<?xml version="1.0" encoding="UTF-8"?>
<!DOCTYPE svg PUBLIC "-//W3C//DTD SVG 1.1//EN" "http://www.w3.org/Graphics/SVG/1.1/DTD/svg11.dtd">
<svg xmlns="http://www.w3.org/2000/svg" xmlns:xlink="http://www.w3.org/1999/xlink">
  <symbol id="plyr-play" viewBox="0 0 32 32">
    <path d="M2.4,30l27.1-14L2.4,2V30z" />
  </symbol>
  <symbol id="plyr-pause" viewBox="0 0 32 32">
    <path d="M14,28h-4V4h4V28z M22,4h-4v24h4V4z" />
  </symbol>

  <symbol id="plyr-muted" viewBox="0 0 32 32">
    <path
      d="M24.4,12h-3v6h3V12z M30.1,10h-3v12h3V10z M17.2,12.8L12.9,8l4.3-3.4V12.8z M25.6,25.7L5.7,3.8L3.5,5.7l5,5.5 H2.9c-0.5,0-0.9,0.4-0.9,0.9v7.6c0,0.5,0.4,0.9,0.9,0.9h5.7l8.5,6.6v-6.7l6.3,6.9L25.6,25.7z"
      fill-rule="evenodd" fill-opacity=".5" />
  </symbol>
  <symbol id="plyr-volume" viewBox="0 0 32 32">
    <path
      d="M8.6,20.7H2.9c-0.5,0-0.9-0.4-0.9-0.9v-7.6c0-0.5,0.4-0.9,0.9-0.9h5.7l8.5-6.6v22.8L8.6,20.7z M24.4,12h-3 v8h3V12z M30.1,10h-3v12h3V10z"
      fill-rule="evenodd" />
  </symbol>

  <symbol id="plyr-enter-fullscreen" viewBox="0 0 32 32">
    <path d="M14.9 25.1h-8v-8l3 2.9 3-3 2.1 2.1-3 3 2.9 3zM20 9.9 17.1 7h8v8l-3-3-3 3-2.1-2.1 3-3z" />
  </symbol>

  <symbol id="plyr-exit-fullscreen" viewBox="0 0 32 32">
    <path d="M8 16h8v8l-2.9-2.9-3 3L8 22l3-3-3-3zM21.1 13.1 24 16h-8V8l2.9 2.9 3-3L24 10l-2.9 3.1z" />
  </symbol>

  <symbol id="plyr-captions-off" viewBox="0 0 32 32">
    <path
      d="M20.3 13.3h3.5v3.5h-1.1l4.8 5.3H29V8H14.7l5.5 6.1v-.8zM18 15.8 6.2 2.8 4 4.7l1.6 1.8L7 8H3v14h6l3 4 3-4h4.8l1.4 1.5 2.8 3.1 2.1-1.9-8.1-8.9zm-6.2 1H8.3v-3.5h3.5v3.5z"
      fill-rule="evenodd" fill-opacity=".5" />
  </symbol>
  <symbol id="plyr-captions-on" viewBox="0 0 32 32">
    <path d="M3 8v14h6l3 4 3-4h14V8H3zm8.8 8.8H8.3v-3.5h3.5v3.5zm6 0h-3.5v-3.5h3.5v3.5zm6 0h-3.5v-3.5h3.5v3.5z"
      fill-rule="evenodd" />
  </symbol>


  <symbol id="plyr-airplay" viewBox="0 0 18 18">
    <path d="M16 1H2a1 1 0 00-1 1v10a1 1 0 001 1h3v-2H3V3h12v8h-2v2h3a1 1 0 001-1V2a1 1 0 00-1-1z" />
    <path d="M4 17h10l-5-6z" />
  </symbol>


  <symbol id="plyr-download" viewBox="0 0 18 18">
    <path d="M9 13c.3 0 .5-.1.7-.3L15.4 7 14 5.6l-4 4V1H8v8.6l-4-4L2.6 7l5.7 5.7c.2.2.4.3.7.3zm-7 2h14v2H2z" />
  </symbol>
  <symbol id="plyr-fast-forward" viewBox="0 0 18 18">
    <path d="M7.875 7.171L0 1v16l7.875-6.171V17L18 9 7.875 1z" />
  </symbol>
  <symbol id="plyr-logo-vimeo" viewBox="0 0 18 18">
    <path
      d="M17 5.3c-.1 1.6-1.2 3.7-3.3 6.4-2.2 2.8-4 4.2-5.5 4.2-.9 0-1.7-.9-2.4-2.6C5 10.9 4.4 6 3 6c-.1 0-.5.3-1.2.8l-.8-1c.8-.7 3.5-3.4 4.7-3.5 1.2-.1 2 .7 2.3 2.5.3 2 .8 6.1 1.8 6.1.9 0 2.5-3.4 2.6-4 .1-.9-.3-1.9-2.3-1.1.8-2.6 2.3-3.8 4.5-3.8 1.7.1 2.5 1.2 2.4 3.3z" />
  </symbol>
  <symbol id="plyr-logo-youtube" viewBox="0 0 18 18">
    <path
      d="M16.8 5.8c-.2-1.3-.8-2.2-2.2-2.4C12.4 3 9 3 9 3s-3.4 0-5.6.4C2 3.6 1.3 4.5 1.2 5.8 1 7.1 1 9 1 9s0 1.9.2 3.2c.2 1.3.8 2.2 2.2 2.4C5.6 15 9 15 9 15s3.4 0 5.6-.4c1.4-.3 2-1.1 2.2-2.4.2-1.3.2-3.2.2-3.2s0-1.9-.2-3.2zM7 12V6l5 3-5 3z" />
  </symbol>
  <symbol id="plyr-pip" viewBox="0 0 18 18">
    <path d="M13.293 3.293L7.022 9.564l1.414 1.414 6.271-6.271L17 7V1h-6z" />
    <path d="M13 15H3V5h5V3H2a1 1 0 00-1 1v12a1 1 0 001 1h12a1 1 0 001-1v-6h-2v5z" />
  </symbol>
  <symbol id="plyr-restart" viewBox="0 0 18 18">
    <path
      d="M9.7 1.2l.7 6.4 2.1-2.1c1.9 1.9 1.9 5.1 0 7-.9 1-2.2 1.5-3.5 1.5-1.3 0-2.6-.5-3.5-1.5-1.9-1.9-1.9-5.1 0-7 .6-.6 1.4-1.1 2.3-1.3l-.6-1.9C6 2.6 4.9 3.2 4 4.1 1.3 6.8 1.3 11.2 4 14c1.3 1.3 3.1 2 4.9 2 1.9 0 3.6-.7 4.9-2 2.7-2.7 2.7-7.1 0-9.9L16 1.9l-6.3-.7z" />
  </symbol>
  <symbol id="plyr-rewind" viewBox="0 0 18 18">
    <path d="M10.125 1L0 9l10.125 8v-6.171L18 17V1l-7.875 6.171z" />
  </symbol>
  <symbol id="plyr-settings" viewBox="0 0 18 18">
    <path
      d="M16.135 7.784a2 2 0 01-1.23-2.969c.322-.536.225-.998-.094-1.316l-.31-.31c-.318-.318-.78-.415-1.316-.094a2 2 0 01-2.969-1.23C10.065 1.258 9.669 1 9.219 1h-.438c-.45 0-.845.258-.997.865a2 2 0 01-2.969 1.23c-.536-.322-.999-.225-1.317.093l-.31.31c-.318.318-.415.781-.093 1.317a2 2 0 01-1.23 2.969C1.26 7.935 1 8.33 1 8.781v.438c0 .45.258.845.865.997a2 2 0 011.23 2.969c-.322.536-.225.998.094 1.316l.31.31c.319.319.782.415 1.316.094a2 2 0 012.969 1.23c.151.607.547.865.997.865h.438c.45 0 .845-.258.997-.865a2 2 0 012.969-1.23c.535.321.997.225 1.316-.094l.31-.31c.318-.318.415-.781.094-1.316a2 2 0 011.23-2.969c.607-.151.865-.547.865-.997v-.438c0-.451-.26-.846-.865-.997zM9 12a3 3 0 110-6 3 3 0 010 6z" />
  </symbol>
</svg>