<?xml version="1.0" encoding="utf-8"?>
<!-- Generator: Adobe Illustrator 19.0.0, SVG Export Plug-In . SVG Version: 6.00 Build 0)  -->
<svg version="1.1" id="Layer_1" xmlns:v="https://vecta.io/nano"
	 xmlns="http://www.w3.org/2000/svg" xmlns:xlink="http://www.w3.org/1999/xlink" x="0px" y="0px" viewBox="188 -144 408 320"
	 enable-background="new 188 -144 408 320" xml:space="preserve">
<path d="M406,18.6c-41.5,0-75.2,33.7-75.2,75.2S364.5,169,406,169s75.2-33.7,75.2-75.2S447.5,18.6,406,18.6L406,18.6z M406,127.5
	c-18.6,0-33.7-15.1-33.7-33.7s15.1-33.7,33.7-33.7s33.7,15.1,33.7,33.7S424.6,127.5,406,127.5z M295.2,29.3
	c-8.5-4.5-18.1-6.5-27.7-6.5h-67.3V167h59.3c13.9,0,27.6-4.3,38.4-13c11.8-9.6,23.8-24.9,23.8-48.3V76.5
	C321.7,49.5,307.9,36,295.2,29.3z M286.1,107.8c0,9-5.5,14.5-11.1,17.8c-5,2.9-10.7,4.2-16.5,4.2h-21.2V60h21.2
	c7.5,0,14.9,2.8,20.1,8.2c4.1,4.3,7.6,10.7,7.6,20.1L286.1,107.8z M585.8,22.9h-94.6v141.9h94.6v-34.6H524v-17.5h51.7V75.9H524V56.5
	h61.9L585.8,22.9L585.8,22.9z M239.9,11.6h-39.7v-146.2c1.7-0.2,3.1-0.4,4.4-0.4l53.7,0.1c22.6,0.6,40.1,10.5,50.9,30.7
	c11.3,21.1,3.8,49.6-16.7,66C282-29.8,270-25.6,256.6-25.6h-16.7V11.6z M240.1-96.7v35.1c6.9,0,13.3,0.4,19.7-0.1
	c6.5-0.6,10.7-4.6,12.2-11c0.8-3.4,1.2-7,1.1-10.5c-0.3-7.8-4.2-12.6-12-13.4C254.3-97.2,247.4-96.7,240.1-96.7z M339.5-134.8
	c1.9-0.1,3.1-0.2,4.4-0.2h53.3c15.8,0.1,29.6,5.6,41,16.7c22.3,21.6,20.4,56.4-3.9,78c-11,9.7-23.7,14.8-38.4,14.8h-16.6v37h-39.6
	L339.5-134.8L339.5-134.8z M379.2-96.7v35.9c7.2-0.3,14.3-0.3,21.3-1.1c5.2-0.7,9-4.2,10.4-9.4c0.9-3.5,1.5-7.3,1.6-10.9
	c0.1-8.4-4.2-13.6-12.5-14.4C393.2-97.2,386.4-96.7,379.2-96.7z M585.8,9.5v-38.2h-66.3v-104h-40.6V9.4L585.8,9.5L585.8,9.5z"/>
</svg>
