<?xml version="1.0" encoding="utf-8"?>
<!-- Generator: Adobe Illustrator 19.0.0, SVG Export Plug-In . SVG Version: 6.00 Build 0)  -->
<svg version="1.1" id="Layer_1" xmlns="http://www.w3.org/2000/svg" xmlns:xlink="http://www.w3.org/1999/xlink" x="0px" y="0px"
	 viewBox="0 0 408 320" enable-background="new 0 0 408 320" xml:space="preserve">
<path d="M218,204.1c-18.6,0-33.7,15.1-33.7,33.7s15.1,33.7,33.7,33.7s33.7-15.1,33.7-33.7S236.6,204.1,218,204.1z M70.5,204H49.3
	v69.8h21.2c5.8,0,11.5-1.3,16.5-4.2c5.6-3.3,11.1-8.8,11.1-17.8l0.1-19.5c0-9.4-3.5-15.8-7.6-20.1C85.4,206.8,78,204,70.5,204z
	 M222.9,72.7c0.9-3.5,1.5-7.3,1.6-10.9c0.1-8.4-4.2-13.6-12.5-14.4c-6.8-0.6-13.6-0.1-20.8-0.1v35.9c7.2-0.3,14.3-0.3,21.3-1.1
	C217.7,81.4,221.5,77.9,222.9,72.7z M71.8,82.3c6.5-0.6,10.7-4.6,12.2-11c0.8-3.4,1.2-7,1.1-10.5c-0.3-7.8-4.2-12.6-12-13.4
	c-6.8-0.6-13.7-0.1-21-0.1v35.1C59,82.4,65.4,82.8,71.8,82.3z M0,0v320h408V0H0z M290.9,11.3h40.6v104h66.3v38.2l-106.9-0.1V11.3z
	 M155.9,9h53.3c15.8,0.1,29.6,5.6,41,16.7c22.3,21.6,20.4,56.4-3.9,78c-11,9.7-23.7,14.8-38.4,14.8h-16.6v37h-39.6L151.5,9.2
	C153.4,9.1,154.6,9,155.9,9z M12.2,9.4C13.9,9.2,15.3,9,16.6,9l53.7,0.1c22.6,0.6,40.1,10.5,50.9,30.7c11.3,21.1,3.8,49.6-16.7,66
	C94,114.2,82,118.4,68.6,118.4H51.9v37.2H12.2V9.4z M133.7,249.7c0,23.4-12,38.7-23.8,48.3c-10.8,8.7-24.5,13-38.4,13H12.2V166.8
	h67.3c9.6,0,19.2,2,27.7,6.5c12.7,6.7,26.5,20.2,26.5,47.2V249.7z M218,313c-41.5,0-75.2-33.7-75.2-75.2s33.7-75.2,75.2-75.2
	s75.2,33.7,75.2,75.2S259.5,313,218,313z M397.9,200.5H336v19.4h51.7v36.8H336v17.5h61.8v34.6h-94.6V166.9h94.6h0.1V200.5z"/>
</svg>
